<svg id="Capa_1" data-name="Capa 1" xmlns="http://www.w3.org/2000/svg" viewBox="0 0 505 531"><defs><style>.cls-1{fill:#ffac22;}.cls-2{fill:#fff;}.cls-3{fill:#f2f2f2;}.cls-10,.cls-4{fill:none;stroke-width:2px;}.cls-4{stroke:#d57342;}.cls-5{fill:#706f6f;}.cls-6{fill:#b01b2f;}.cls-7{fill:#fbc754;}.cls-8{fill:#fbc755;}.cls-9{fill:#af1f2e;}.cls-10{stroke:#626e48;}.cls-11{fill:#c4a33a;}.cls-12{fill:#003956;}.cls-13{fill:#cdcdcd;}</style></defs><rect class="cls-1" width="505" height="531"/><path class="cls-2" d="M365.86,580.43c1.26,2.4,2.53,7.22,2.57,13.41.08,14.33-9.22,25.17-26.46,25.27-16.46.09-27.67-10.63-27.76-26.4,0-6.33,1.34-10.34,2.27-12.08l5.55,1.55a23.24,23.24,0,0,0-2.13,10.28c.07,11.91,8,19.79,21.8,19.71,12.87-.08,21.1-7.29,21-19.66a25.63,25.63,0,0,0-2.25-10.69Z" transform="translate(-267 -140)"/><path class="cls-2" d="M342.72,546l.12,19.77,19-.11-.12-22,5.69,0,.16,28.59-52.57.3L314.79,545l5.7,0,.12,20.89,16.61-.09-.11-19.76Z" transform="translate(-267 -140)"/><path class="cls-2" d="M315.44,535.39a65.87,65.87,0,0,1-1.16-12.59c0-7,1.26-11.55,4.2-14.74a13.35,13.35,0,0,1,10-4.05,13.76,13.76,0,0,1,13.47,9.5h.23c1.38-3.93,5.11-6.29,10.57-7.53,7.32-1.7,12.38-2.93,14.4-4l0,6.79c-1.47.84-6,2-12.54,3.46-7.24,1.55-10,4.28-10.16,10.24l0,6.19,22.78-.13,0,6.56Zm23.91-6.7,0-6.72c0-7-4-11.44-10.05-11.4-6.78,0-9.72,4.8-9.76,11.74a26.25,26.25,0,0,0,.66,6.49Z" transform="translate(-267 -140)"/><path class="cls-2" d="M320.22,484.45l.09,15.46-5.77,0-.22-37.63,5.77,0,.09,15.54,46.81-.27,0,6.64Z" transform="translate(-267 -140)"/><path class="cls-2" d="M314.25,450.09l52.58-.3,0,6.56-52.57.3Z" transform="translate(-267 -140)"/><path class="cls-2" d="M314.19,438.62,314,411.25l5.7,0,.11,20.82,17.48-.1-.11-19.23,5.61,0,.11,19.23,23.79-.14,0,6.56Z" transform="translate(-267 -140)"/><path class="cls-2" d="M313.94,395.33l52.57-.3,0,6.56-52.57.3Z" transform="translate(-267 -140)"/><path class="cls-2" d="M364.53,348.05c1.26,2.41,2.54,7.23,2.57,13.42.09,14.33-9.21,25.16-26.45,25.26-16.46.1-27.68-10.63-27.77-26.39,0-6.33,1.35-10.34,2.28-12.08l5.54,1.55a23.24,23.24,0,0,0-2.12,10.27c.06,11.92,8,19.79,21.8,19.72,12.87-.08,21.09-7.29,21-19.66a25.49,25.49,0,0,0-2.24-10.7Z" transform="translate(-267 -140)"/><path class="cls-2" d="M349.62,331.4l16.56,5.18,0,6.79-52.67-17-.05-7.92L366,300.83l0,7-16.51,5.52Zm-5.4-16.64-15.11,5.06c-3.42,1.15-6.54,1.93-9.58,2.7v.15c3.13.73,6.33,1.55,9.53,2.51l15.24,4.89Z" transform="translate(-267 -140)"/><path class="cls-2" d="M314.06,293.66a91.8,91.8,0,0,1-1.17-14c-.05-9.42,2.17-16.15,6.44-20.63s10.33-7.22,18.83-7.27,15.62,2.48,20.48,7.2,7.64,12.55,7.7,22.43a104.34,104.34,0,0,1-.56,11.93Zm46.46-6.83a40.88,40.88,0,0,0,.35-6.64c-.08-14-8.24-21.6-22.43-21.52-12.41,0-20.25,6.83-20.17,20.71a36.1,36.1,0,0,0,.75,7.69Z" transform="translate(-267 -140)"/><path class="cls-2" d="M338.57,199.84c18.1-.1,27.75,10.48,27.82,23.45.08,13.43-10.63,22.92-26.54,23-16.69.09-27.67-9.88-27.75-23.45C312,209,323,199.93,338.57,199.84Zm1.08,39.45c11.23-.07,21.26-6,21.2-16.34s-10-16.24-21.93-16.17c-10.45.06-21.34,5.4-21.28,16.34S328.11,239.35,339.65,239.29Z" transform="translate(-267 -140)"/><rect class="cls-3" x="147" y="7" width="349" height="515"/><path class="cls-4" d="M584.33,203.91l.13.54c0,.08,0,.08,0,0a1.08,1.08,0,0,0,0-.59" transform="translate(-267 -140)"/><path class="cls-5" d="M482.35,175H487c7.4.21,15.43,2.91,18.67,10.37a23.54,23.54,0,0,1,1.82,9.88q0,16.33,0,32.65c0,2.22.37,4.36,2.77,5a5.78,5.78,0,0,0,4-.31.07.07,0,0,1,.08,0v6.52s0,.06,0,.07a19.5,19.5,0,0,1-7.92.25c-5.36-1-5.83-6-6-10.42,0-.22-.08-.24-.2-.05-3.6,5.56-8,10.17-14.64,11.72a34,34,0,0,1-10.63.74c-8.52-.7-16.19-5.39-17.64-14.59-.09-.6-.18-1.19-.26-1.78v-4c.53-5.51,2.85-9.9,7.65-12.64a28.17,28.17,0,0,1,7.48-2.94c6.19-1.49,12.55-2.1,18.85-2.85,3.47-.41,7.42-.9,8.49-5a13.33,13.33,0,0,0,.38-4c-.22-4.17-1.56-7.63-5.25-9.82-4.11-2.44-10.18-2.61-14.77-2-7.54,1.05-12.57,6.24-12.49,14.18a.08.08,0,0,1-.09.09h-7.56a.12.12,0,0,1-.12-.12h0C460.3,182.22,469.56,175.66,482.35,175Zm-8.88,59.17c6.28,2.05,14.34,0,19.37-4a17.94,17.94,0,0,0,6.81-11.84,28.42,28.42,0,0,0,.18-3.7q0-4.57,0-9.2a.06.06,0,0,0-.12,0c-1.19,2.28-6.81,2.93-9.13,3.27l-7.94,1.19c-7.15,1.09-17.91,2.94-18,12.64C464.59,228.15,468.34,232.51,473.47,234.17Z" transform="translate(-267 -140)"/><path class="cls-5" d="M635.93,175h3.92q13.15.87,20,12c4.28,6.95,5.43,15.3,5.35,23.34a.09.09,0,0,1-.09.09h-47.4c-.06,0-.08,0-.08.09.14,10,4.83,21.45,15.44,23.94a22.38,22.38,0,0,0,12.36-.7c6.38-2.37,10.25-8.14,11.77-14.72a.1.1,0,0,1,.12-.09h7.29c.23,0,.32.11.26.34-1.27,5.37-3.25,10.35-6.89,14.47-4.29,4.86-10.43,7.26-16.69,7.71a34,34,0,0,1-12.5-1.14c-15.38-4.8-19.87-21.64-18.71-36.11C611.27,189,619.78,176,635.93,175Zm-18.17,27.93c0,.2-.13.47-.14.71,0,.08,0,.12.11.12h39.61c.06,0,.09,0,.09-.08-.32-11-6.91-21.4-18.5-22.1C626.56,180.82,619,191.69,617.76,202.93Z" transform="translate(-267 -140)"/><path class="cls-5" d="M702.38,175h3.87c5.37.26,11.07,1.7,14.91,5.8,4.56,4.88,5.54,12.29,5.45,18.71v40l-.12.19a.16.16,0,0,1-.14.08h-7.3c-.06,0-.09,0-.09-.1V204.09c0-8.06-.14-18.71-9.53-21.67a21.83,21.83,0,0,0-10-.51c-10.69,1.9-15.45,11.81-15.46,21.91q0,17.87,0,35.75a.23.23,0,0,1-.23.23h-7.34a.08.08,0,0,1-.09-.09v-63a.09.09,0,0,1,.08-.08h7.28a.3.3,0,0,1,.3.3h0v10.58a.07.07,0,0,0,.07.07.07.07,0,0,0,.06,0C686.85,180,694.81,175.55,702.38,175Z" transform="translate(-267 -140)"/><path class="cls-6" d="M552.59,183.15l-.36-.17a.1.1,0,0,1-.07-.14c.11-.35,5.89-.66,6.51-.66a1.18,1.18,0,0,1,1.07.4c.41.43,1,1.34,1.73.78l1.15-.92a.24.24,0,0,1,.31,0,2.35,2.35,0,0,0,1.13.55.18.18,0,0,1,.13.11l.15.3a.09.09,0,0,0,.14.05,4.22,4.22,0,0,1,1.65-.66,7.92,7.92,0,0,0,1.46-.22.09.09,0,0,0,.07-.14l-.09-.2a.29.29,0,0,1,0-.16.53.53,0,0,1,.23-.4.15.15,0,0,1,.19,0,2.66,2.66,0,0,1,.73,1c0,.07.07.09.13,0a4.59,4.59,0,0,0,1.3-1.22,1.19,1.19,0,0,1,1.25-.62c1.49.28,2.94,1.37,4.25,1.66,1.09.25,3.61-1.2,4.65-1.72,1.54-.76,2.6-1.07,4.13-.5a.25.25,0,0,0,.17,0,46.32,46.32,0,0,1,5.66-1.07.15.15,0,0,1,.17.08l.28.44a.34.34,0,0,0,.45.14,31.51,31.51,0,0,1,5.47-1.87c1.88-.45,3.89-.19,5.71-.82a2.14,2.14,0,0,1,.79-.13,27.68,27.68,0,0,1,7.15,1.38c1.6.53,1.23.92.53,2a7.75,7.75,0,0,1-2.47,2,.24.24,0,0,0-.12.14c-.32.68-2.33,3.1-3,3.07-1.5,0-2.32,1.69-3.55,2.31a24.38,24.38,0,0,1-7.83,2.4.33.33,0,0,0-.16.07,5.74,5.74,0,0,1-1.86.88,1.68,1.68,0,0,0-.81.56c0,.05-.07.05-.09,0a.1.1,0,0,1,0-.09.15.15,0,0,0,0-.18l-.38-.51a.14.14,0,0,0-.21-.05l-.74.38a.12.12,0,0,1-.16,0c-.19-.28-.41-.39-.63-.33a20.35,20.35,0,0,1-3.28.6.18.18,0,0,0-.14.1l-.1.19c0,.09-.1.1-.17,0l-.42-.43a.12.12,0,0,0-.14,0c-.79.29-2.27,1.18-1.77,2.18a.1.1,0,0,1,0,.15l-3,2a.08.08,0,0,0,0,.11.07.07,0,0,0,.08,0,.5.5,0,0,1,.49.21.08.08,0,0,1,0,.11.09.09,0,0,1-.07,0,38,38,0,0,0-7.23-.88c-1.56-.14-3.3-.56-4.82-.69-3.21-.28-5.4.86-7.53,3.1a.14.14,0,0,1-.16,0c-1.26-.48-1.52-1.43-1.87-2.54,0-.11-.07-.11-.12,0-.53,1.19-1.61,2.75-3,2.73a5,5,0,0,1-3.25-2,.12.12,0,0,1,0-.17.19.19,0,0,1,.1,0l1,.18c.14,0,.19,0,.14-.16l-.14-.44a.17.17,0,0,0-.12-.11l-.24-.05c-.08,0-.11,0-.08-.13a.82.82,0,0,0-.3-1.13.16.16,0,0,0-.21.05l0,0-.18.59a.17.17,0,0,1-.13.13c-.4.11-.53-.11-.41-.46a1.18,1.18,0,0,0-.31-1.28c-.07-.06-.12,0-.15,0l-.06.19c0,.06,0,.07-.11,0l-.86-.55a.26.26,0,0,0-.19,0,3,3,0,0,0-1.53.77.17.17,0,0,1-.17,0c-.34-.24.07-.66-.22-.78a.09.09,0,0,0-.13,0l-.23.22a.09.09,0,0,1-.15,0,.63.63,0,0,1-.16-.61.18.18,0,0,1,.12-.15,1.21,1.21,0,0,0,.57-.69.11.11,0,0,0-.06-.14h0a1.06,1.06,0,0,0-1.06.26.09.09,0,0,1-.12,0l0,0-.2-.71a.11.11,0,0,0-.14-.09,5.94,5.94,0,0,0-2.14,1.25.86.86,0,0,1-.87.13.09.09,0,0,0-.14.05.4.4,0,0,1-.36.23c-.12,0-.14,0-.09-.13a.91.91,0,0,0,.11-.7.12.12,0,0,0-.15-.11,1,1,0,0,0-.61.32.22.22,0,0,1-.19.08.43.43,0,0,1-.41-.46.23.23,0,0,1,.06-.16,3.88,3.88,0,0,0,.79-1.18.33.33,0,0,0-.16-.41.25.25,0,0,0-.12,0h-.49a.14.14,0,0,0-.15.12.25.25,0,0,0,0,.09.1.1,0,0,1-.12.12.75.75,0,0,1-.67-.42c0-.08-.09-.08-.14,0a.2.2,0,0,1-.22.09.16.16,0,0,1-.13-.11l-.17-.49a.16.16,0,0,0-.12-.12c-.43-.11-.45.58-.49.82s-.06.24-.1,0a8.84,8.84,0,0,1,.51-3.36c.07-.27,0-.42-.26-.46-.07,0-.1,0-.08-.12l.28-1.08a.29.29,0,0,1,.12-.18,1.58,1.58,0,0,0,.53-1.24q0-.33.33-.27a.17.17,0,0,0,.17-.08l0-.08c0-.05.07-.05.12,0l0,0a0,0,0,0,1,0,0,.36.36,0,0,0,0,.56.14.14,0,0,0,.16,0c1-.27,2.08,2,2.47,1.59a.12.12,0,0,0,0-.16,4.36,4.36,0,0,0-1-1.26c-.06-.06,0-.11,0-.16l.36-.2c.07,0,.1,0,.09.07l0,.19a.22.22,0,0,0,0,.14c.08.19.19.21.31.09a26.51,26.51,0,0,0,2.51-3.07.14.14,0,0,1,.17-.05l.67.27a.22.22,0,0,0,.16,0c.31-.12.52,0,.64.33,0,.07.07.09.13.07.26-.05.37,0,.32.32s0,.17.13.08a.39.39,0,0,1,.44,0,.22.22,0,0,1,.1.13c.17.63.7.5,1.11.63.89.28,2.19.8,2.67.58C552.7,183.25,552.7,183.2,552.59,183.15Zm-11.93,1.23s-.06-.1-.15-.12h0c-.09,0-.17,0-.18.06s.06.11.15.12h0C540.57,184.46,540.65,184.43,540.66,184.38Zm1.09.1a0,0,0,0,0,0,.07l0,0,.31,0q.63.12,0-.15A.43.43,0,0,0,541.75,184.48Zm-1.77.62s.11,0,.14-.08h0c0-.06,0-.13,0-.15h0s-.1,0-.13.08h0c0,.06,0,.13,0,.15Zm14.61,10.16c-.21.48-.31.5-.76.71q-.33.15,0,.15h.73a.11.11,0,0,0,.12-.12v-.71Q554.71,195,554.59,195.26Z" transform="translate(-267 -140)"/><path class="cls-7" d="M583.77,202.4l.16.53c0,.08,0,.07.05,0a1.18,1.18,0,0,0-.08-.59,4.29,4.29,0,0,1,.48-3.47c.67-.87,1.18-.31,1.39.47.29,1.07.74,2.85,2,2.6a.16.16,0,0,0,.12-.18l0-.07c-.77-.93-.09-2,.63-2.67a.26.26,0,0,1,.17-.07c1.42,0,.39,2.26.14,2.78a.35.35,0,0,0,.09.42c.7.56,1.35-.49,1.62-1,.12-.21.25-.21.38,0a3.49,3.49,0,0,1,.51,2c0,.45-1.19,1.31-1.54,1.6a1.77,1.77,0,0,0-.5.71.17.17,0,0,0,.08.24.14.14,0,0,0,.11,0c.84-.18,3.86-.45,3.88,1.12,0,1.2-1.37,2.41-2.38,2.79a25.92,25.92,0,0,0-2.64,1.18c-.07,0-.11,0-.13-.06-.61-3-6.16,1.63-7.12,2.5-1.28,1.16-2.79.37-4-.17a4.52,4.52,0,0,0-2.22-.12.17.17,0,0,0-.13.1,3.09,3.09,0,0,1-.88,1.16c-1.32,1.08-2.94.45-3.52,2.5a.14.14,0,0,1-.14.11l-1.5.1a.17.17,0,0,0-.15.18.2.2,0,0,0,0,.08l.9,1.19a.12.12,0,0,1,0,.17l-.36.37a.12.12,0,0,0,0,.17l.29.48s0,.06,0,.06h-.07l0,0c-1.88-2.48-4.08.6-6.06-.28a1.07,1.07,0,0,0-.94,0,36,36,0,0,1-15.81,1.28c-.08,0-.1-.06-.08-.13.11-.34.2-.83-.12-1.08a.56.56,0,0,0-.8.15c-.9,1-1.61,2.27-3.19,2.17a.09.09,0,0,0-.1.09,9.82,9.82,0,0,0,0,2.36,1,1,0,0,1-.68,1.08c-2.76,1.2-3.88-3.71-6.49-.62a.08.08,0,0,1-.12,0,.06.06,0,0,1,0-.07,1,1,0,0,0-.55-1.2c-1-.43-2.06.57-2.81-.6a.13.13,0,0,0-.18,0l0,0c-.41.59-1.37.86-1.64,0a.18.18,0,0,1,0-.16,3.47,3.47,0,0,0,.54-2.32.21.21,0,0,1,0-.17c1.87-2.93-.79-2.32-1.88-3.63a1.46,1.46,0,0,1-.18-1.62.28.28,0,0,1,.11-.13l1-.7q.11-.08,0-.15c-1.33-.94-.94-2-.71-3.42a6.6,6.6,0,0,0-.11-2.61.1.1,0,0,1,.07-.11h0c.76.12,2,.2,2,1.3a.12.12,0,0,1-.1.13l-1.16.31a.17.17,0,0,0-.14.12c-.41,1.25,1.12,1.1,1.7.79s.74-1,1.06-1.47a.25.25,0,0,0,0-.17,6,6,0,0,0-.72-2c-.52-.89.94-1.67,1.63-1.69a3.08,3.08,0,0,1,1.8.39,1,1,0,0,1-.2,1.71c-.87.25-1.78.4-2.24,1.3,0,.08,0,.13.07.16,2.32.64,4-3.71,6.55-2.58a.19.19,0,0,0,.18,0c1.25-.49,2.34-1,3.49-.38a.25.25,0,0,1,.12.13l.45,1.12a.06.06,0,0,0,.08,0,0,0,0,0,0,0,0c.07-.25-.09-.31-.16-.46-.61-1.32.26-2.22,1.21-3a.14.14,0,0,1,.15,0,2.19,2.19,0,0,1,1.44,1.58.37.37,0,0,1-.26.45h-.1c-.69,0-2,.59-1.94,1.49a.1.1,0,0,0,.13.11,13.53,13.53,0,0,0,3.61-.44,14.31,14.31,0,0,0,3.17-1.49.28.28,0,0,1,.39.1.33.33,0,0,1,0,.19,3.93,3.93,0,0,0,0,1.28.11.11,0,0,0,.12.1c1.09-.05.87-.76,1-1.5a5.25,5.25,0,0,0,0-1,.23.23,0,0,1,0-.16.64.64,0,0,0,.1-.24.19.19,0,0,1,.08-.14l1-.79a.07.07,0,0,1,.11,0l0,0a.08.08,0,0,0,.12,0c.06,0,.07-.07.05-.1a.17.17,0,0,1,0-.21l.68-.79a.22.22,0,0,1,.18-.08c.84.08,1.4-1.05,2.2-.05a.18.18,0,0,0,.14.08,1.11,1.11,0,0,0,.78-.17.11.11,0,0,1,.16,0l.3.38a.18.18,0,0,1,0,.2,1.92,1.92,0,0,0-.09,1.09c0,.08.06.11.14.08a2,2,0,0,0,.77-.54.11.11,0,0,1,.14,0,.16.16,0,0,1,0,.09c-.13,1,.75,1.32,1.54,1a5.92,5.92,0,0,1,2.54-.66.22.22,0,0,1,.16.07l.2.22c0,.06.08.05.13,0s.14-.12.22,0a.23.23,0,0,0,.18.06c1.54-.12,3.07-.21,4.61-.29.32,0,.3-.19.52-.35a8.09,8.09,0,0,1,4-1.39,7.67,7.67,0,0,0,3.23-.75,5.17,5.17,0,0,1,1.43-.71,7.71,7.71,0,0,1,3.1.12.11.11,0,0,0,.14-.07l.92-2a.35.35,0,0,1,.43-.22,1.21,1.21,0,0,1,.76,1.45c-.15.4-.83.72-1.17,1.07,0,.06,0,.1,0,.14A3.47,3.47,0,0,1,583.77,202.4Zm-27.82,0a.06.06,0,0,0,0,.06h0l.92-.51a.05.05,0,0,0,0-.07s0,0,0,0l-.87-.21s-.06,0-.06,0h0Z" transform="translate(-267 -140)"/><path class="cls-8" d="M601.09,202.58a.06.06,0,0,1-.05-.06v0a4.51,4.51,0,0,1,.41-2h0a4.6,4.6,0,0,1,0,2v0s0,0,0,0h0Z" transform="translate(-267 -140)"/><path class="cls-9" d="M584.46,203.86a1.08,1.08,0,0,1,0,.59c0,.08,0,.08,0,0l-.13-.54Z" transform="translate(-267 -140)"/><path class="cls-8" d="M600.13,209.58c-1.06,1-2.25-.08-2.58-1.17l-.6-1.92a.29.29,0,0,1,0-.16,1.51,1.51,0,0,1,1.64-.94,6.47,6.47,0,0,1,2.32.66C602.33,207,600.91,208.84,600.13,209.58Z" transform="translate(-267 -140)"/><path class="cls-8" d="M594.37,207.28a3.21,3.21,0,0,1-.76-.24c-.13,0-.12-.09,0-.11a3.38,3.38,0,0,0,1.23-.45.24.24,0,0,1,.34.08l0,.07.19.92a.13.13,0,0,1-.07.16l-.85.45c-.09.05-.15,0-.19-.07a.6.6,0,0,1,.14-.62C594.53,207.36,594.51,207.3,594.37,207.28Z" transform="translate(-267 -140)"/><path class="cls-8" d="M523.31,217.07c-.81-.53-1.68-.67-1.19-1.93.65-1.67,4,.59,5,1.25a.16.16,0,0,1,.08.14c.05.65.12,1.31.21,2,.19,1.33-3,.11-3.45,0a.23.23,0,0,1-.21-.28C523.76,217.73,523.77,217.37,523.31,217.07Z" transform="translate(-267 -140)"/><path class="cls-6" d="M580.77,237l1.09-.36q.17-.06.06.09c-.95,1.2-3.56,4-5.23,2.43a2.8,2.8,0,0,1-.87-1.66.08.08,0,0,0-.1-.06.06.06,0,0,0-.06.05,5.56,5.56,0,0,1-2.26,3,.23.23,0,0,1-.34,0c-2.21-2.62-5.38-2.09-8.22-.95A49.54,49.54,0,0,1,560,241.2a33.57,33.57,0,0,0-6.48,2.3c-.25.13-.27.09-.08-.11a3.48,3.48,0,0,1,.57-.46.1.1,0,0,0,0-.15l0,0a11.9,11.9,0,0,0-2.56-1.31c-.07,0-.09-.07,0-.12.86-1.13-.32-1.77-1.32-2a.09.09,0,0,0-.12.07.87.87,0,0,1-.6.56.13.13,0,0,1-.16-.06l0-.06a.16.16,0,0,0-.16-.09q-2.29.13-2.91.12a1.12,1.12,0,0,0-1,.41.16.16,0,0,1-.16.07l-.78-.14a.15.15,0,0,0-.15.06l-.6.79a.12.12,0,0,1-.16,0,3.89,3.89,0,0,0-1.45-.34.22.22,0,0,1-.16-.05c-.61-.42-1.08-.25-1.71-.27a26.67,26.67,0,0,1-7.25-1c-.2,0-.29-.16-.27-.34a.14.14,0,0,0-.07-.15,6.11,6.11,0,0,0-2.15-1.2.3.3,0,0,0-.18,0,.47.47,0,0,1-.63,0,10.38,10.38,0,0,1-1.61-1.5,4.21,4.21,0,0,1-.53-1.11.24.24,0,0,0-.15-.13l-.42-.12a.37.37,0,0,1-.14-.07,4.49,4.49,0,0,0-1.48-.86.14.14,0,0,1-.1-.14,1,1,0,0,0-.16-.63c-.5-.82.06-1.3.76-1.68a40.93,40.93,0,0,1,8.06-3.28,10.73,10.73,0,0,1,2.36-.18,15.35,15.35,0,0,0,1.91-.15,19.36,19.36,0,0,1,7.93.54.41.41,0,0,0,.47-.21,1.16,1.16,0,0,1,1.08-.7c2-.12,3.61-.18,4.75-.19a4.6,4.6,0,0,0,2.15-.7.47.47,0,0,1,.17,0,10,10,0,0,1,1.75.16c1,.28,1.92.58,2.87.89a2.74,2.74,0,0,0,2.72-.21,18.87,18.87,0,0,1,4.74-2.54.13.13,0,0,1,.16.06,7.13,7.13,0,0,0,1.4,1.55c.06.05.11,0,.14,0,.17-.38.91-1.88,1.32-1.15a.18.18,0,0,1,0,.16l-.11.22a.23.23,0,0,0,0,.18c.08.19.24.24.47.17a2.81,2.81,0,0,1,2.38.16.1.1,0,0,0,.16-.05l.11-.18a.43.43,0,0,1,.13-.14l1.58-1.05a.14.14,0,0,1,.17,0l1.1.78a.37.37,0,0,0,.48,0,7,7,0,0,1,2.07-1.78c2.09-.71,4.38-.66,6.55-1,.07,0,.1,0,.11.09,0,.35-.49.26-.55.61,0,.08,0,.11.1.08,1.11-.36,2-1.06,3.12-1.43.54-.17,1-1.24,1.35-1,.06,0,.1,0,.13-.05A1.17,1.17,0,0,0,589,221a.36.36,0,0,1,.11-.16l.85-.75c.06-.06.11-.05.13,0l0,.1c0,.07,0,.08.1,0l.72-.63a.17.17,0,0,1,.23,0l0,0a12.06,12.06,0,0,0,1.84,2.63c.06.07.11.06.15,0l.2-.5a.09.09,0,0,1,.12-.06l.27.1c.08,0,.09.08,0,.15l-1.43,1.78a.09.09,0,0,0,0,.11.08.08,0,0,0,.09,0c.66-.38,1-1.1,1.69-1.55a.33.33,0,0,0,.12-.14.88.88,0,0,1,1.05-.51.15.15,0,0,0,.15-.06,1.06,1.06,0,0,0,.19-.4.2.2,0,0,1,.12-.15l.32-.16c.09-.05.15,0,.16.09a.84.84,0,0,1-.16.63.12.12,0,0,0,0,.15,2.64,2.64,0,0,1,.55,1.4.32.32,0,0,1,0,.19l-.44.68a.36.36,0,0,0-.06.2,13.76,13.76,0,0,1-.13,3.26.11.11,0,0,1-.14.07c-.29-.06.1-1-.32-.91a.14.14,0,0,0-.11.12,1,1,0,0,1-.44.73.26.26,0,0,1-.19,0l-.15,0c-.06,0-.09,0-.11.07a.82.82,0,0,1-.67.54c-.06,0-.1,0-.11-.08l0-.18a.1.1,0,0,0-.13-.09c-1,.14-.79,1.11-.3,1.67a.33.33,0,0,1,.07.16.43.43,0,0,1-.4.55.24.24,0,0,1-.18,0,.81.81,0,0,0-.71-.07.18.18,0,0,0-.11.14c0,.17-.09.8-.26.85s-.14,0-.15-.1v-.07c0-.09,0-.12-.13-.07-.66.35-1.38-.21-1.74-.54-.74-.65-1,.09-1.38.63a.19.19,0,0,1-.15.08l-1-.08a.14.14,0,0,0-.15.13.11.11,0,0,0,0,.08l.54.89a.19.19,0,0,1,0,.15c-.06.48-.48.32-.81.25-.07,0-.1,0-.1.09v.4a.26.26,0,0,1-.05.17c-.25.33-1-.17-1.36-.28a.28.28,0,0,0-.18,0c-.4.15-1.19.93-1.47.86a.17.17,0,0,0-.15,0,1.23,1.23,0,0,0-.45,1c0,.39-.08.65-.47.69a.22.22,0,0,1-.24-.2v-.4c0-.1,0-.13-.13-.08a1.05,1.05,0,0,0-.6,1.13.21.21,0,0,1-.08.17,1.85,1.85,0,0,0-.7.88S580.72,237,580.77,237ZM596,221.91l-.17.16c-.07.07,0,.13,0,.16a.25.25,0,0,0,.19,0,.13.13,0,0,0,.08-.13V222C596.09,221.83,596,221.81,596,221.91Zm-1.64.62v.13c0,.09,0,.11.11.05s.14-.2,0-.27S594.31,222.42,594.31,222.53Zm1.89.23c.06,0,.09-.07.08-.15h0c0-.08-.06-.14-.11-.13h0c-.06,0-.09.07-.08.15S596.15,222.77,596.2,222.76Zm-6,7.43s0-.14-.07-.21h0c-.08-.08-.17-.1-.21-.07s0,.14.07.21h0C590.09,230.2,590.19,230.23,590.22,230.19Zm-10.5,6.38,0-.13c-.06-.15-.1-.15-.14,0l-.19.68c0,.09,0,.13.1.13h.64c.17,0,.19-.07.07-.18l-.31-.31A.46.46,0,0,1,579.72,236.57Z" transform="translate(-267 -140)"/><path class="cls-10" d="M539.05,481.56q-1.44,33.65-.26,67.29a.86.86,0,0,0,.31.68,1.65,1.65,0,0,0,.57.35" transform="translate(-267 -140)"/><path class="cls-10" d="M598.59,584.36,597,652.6" transform="translate(-267 -140)"/><path class="cls-10" d="M658.14,481.56l-1.28,68.92" transform="translate(-267 -140)"/><path class="cls-10" d="M597.34,516.46l.45-68.88" transform="translate(-267 -140)"/><path class="cls-11" d="M588.54,379.39l9.93-.35q1.38-.06,1.38,1.35v4.24a1.39,1.39,0,0,1-1.58,1.55H587.94a1.11,1.11,0,0,0-1.26,1.26v48A1.38,1.38,0,0,1,585.1,437h-6.57a1.66,1.66,0,0,1-1.88-1.88V387.44a1.11,1.11,0,0,0-1.25-1.26h-3.56c-1.14,0-1.65-.57-1.55-1.7l.42-4.24a1.26,1.26,0,0,1,1.63-1.28l2.73.38c1.09.15,1.63-.32,1.61-1.41-.25-20.63,6.14-37.38,30.81-33.32a1.38,1.38,0,0,1,1.26,2l-.88,3.11A1.4,1.4,0,0,1,606,350.8c-17.85-4-20.23,12.19-19.18,27A1.48,1.48,0,0,0,588.54,379.39Z" transform="translate(-267 -140)"/><path class="cls-12" d="M531.85,439.64c2.91,6.54,11.33,7.52,17.65,7.74,1.25.05,1.61.65,1.08,1.78l-2.66,5.47a1.88,1.88,0,0,1-1.9,1.13q-16.68-.75-22.17-15.87a2.3,2.3,0,0,0-1.75-1.56c-46.41-11-39-91.71,8.17-86.65,42.4,4.57,42.82,74.49,2.36,86.3a1.2,1.2,0,0,0-.84,1.48A.64.64,0,0,0,531.85,439.64Zm-5.3-8.9c13.75,0,24.92-16.07,25-35.94h0c0-19.87-11.09-36-24.84-36h0c-13.75,0-24.92,16.06-25,35.93h0c0,19.87,11.09,36,24.84,36Z" transform="translate(-267 -140)"/><path class="cls-11" d="M634.63,438.48c-14.73-.13-26.56-13.94-26.41-30.84s12.21-30.51,26.95-30.38,26.55,13.94,26.4,30.84S649.36,438.61,634.63,438.48Zm.82-6.05c9-.2,16.07-11.25,15.77-24.68s-7.86-24.15-16.87-23.94-16.07,11.25-15.77,24.68,7.86,24.15,16.87,23.94Z" transform="translate(-267 -140)"/><path class="cls-11" d="M685.72,391.25V436c0,.92-.45,1.36-1.35,1.33l-7-.2a1.42,1.42,0,0,1-1.55-1.58q-.36-21.92-.18-43.65c.08-11,24.27-15.05,31.82-14.34,1.27.11,1.62.75,1,1.9L706.28,384a2,2,0,0,1-2.28,1.2,23.55,23.55,0,0,0-17,3.66A2.81,2.81,0,0,0,685.72,391.25Z" transform="translate(-267 -140)"/><path class="cls-12" d="M539.05,481.56q-1.44,33.65-.26,67.29a.86.86,0,0,0,.31.68,1.65,1.65,0,0,0,.57.35c-.35,2.26,53.13,31.37,58.92,34.48L597,652.6,479.8,585.13a1.75,1.75,0,0,1-.93-1.6V448.41a.78.78,0,0,1,1.18-.7Z" transform="translate(-267 -140)"/><path class="cls-12" d="M658.14,481.56l-1.28,68.92q-29.5-18.63-59.52-34l.45-68.88Z" transform="translate(-267 -140)"/><path class="cls-11" d="M597,652.6l1.63-68.24,58.27-33.88,1.28-68.92,57.72-33.37c.8-.47,1.2-.24,1.2.7V583.6a2,2,0,0,1-1.08,1.86q-58.66,34-117.36,67.75C597.51,653.84,597,653.64,597,652.6Z" transform="translate(-267 -140)"/><path class="cls-11" d="M597.79,447.58l-.45,68.88-57.67,33.42a1.65,1.65,0,0,1-.57-.35.86.86,0,0,1-.31-.68q-1.17-33.65.26-67.29Z" transform="translate(-267 -140)"/><path class="cls-13" d="M596,296h56V247a39,39,0,0,1,30,0v49h56a43,43,0,0,1,0,26H683v55a31.79,31.79,0,0,1-31,0V322H596a29.67,29.67,0,0,1,0-26Z" transform="translate(-267 -140)"/></svg>